<?xml version="1.0" encoding="utf-8"?>
<!-- Generator: Adobe Illustrator 15.0.2, SVG Export Plug-In . SVG Version: 6.00 Build 0)  -->
<!DOCTYPE svg PUBLIC "-//W3C//DTD SVG 1.1//EN" "http://www.w3.org/Graphics/SVG/1.1/DTD/svg11.dtd">
<svg version="1.1" id="Layer_2" xmlns="http://www.w3.org/2000/svg" xmlns:xlink="http://www.w3.org/1999/xlink" x="0px" y="0px"
	 width="792px" height="1224px" viewBox="0 0 792 1224" enable-background="new 0 0 792 1224" xml:space="preserve">
<path fill="#FFFFFF" d="M296.565,457.115l0.755-0.745l-1.444-3.444l0.009-0.01l-2.719-2.75l-1.756,1.737l0.53,0.537l-1.363,1.348
	l-0.53-0.537l-1.756,1.738l0.53,0.536l-1.256,1.241l-0.693-0.393l-1.116,1.103l0.364,0.719l-1.024,1.014l-0.002-0.002l-1.391,1.378
	l-0.385-0.075l-1.786,1.745l0.009,0.014l-0.021,0.021l0.161,0.164l-1.59,1.37l-1.584,1.31l-1.093,1.11l-0.965,1.148
	c0,0-0.643,1.115-0.854,1.427c-0.209,0.312,0.176,0.887,0.176,0.887s0.169,0.224,0.27,0.356c0.099,0.132,0.728,0.435,0.947,0.333
	c0.222-0.1,1.052-0.399,2.138-1.367c0.321-0.401,5.134-5.177,5.134-5.177l1.95,0.418l1.966-1.945l-0.095-0.599l0.773-0.766
	l0.595,0.252l1.117-1.103l-0.19-0.456l1.277-1.263l2.796,0.822l0.755-0.746l-2.88-2.913l1.364-1.344L296.565,457.115z"/>
</svg>
