<?xml version="1.0" encoding="utf-8"?>
<!-- Generator: Adobe Illustrator 18.1.1, SVG Export Plug-In . SVG Version: 6.00 Build 0)  -->
<svg version="1.1" id="Layer_1" xmlns="http://www.w3.org/2000/svg" xmlns:xlink="http://www.w3.org/1999/xlink" x="0px" y="0px"
	 viewBox="0 0 1920 1080" enable-background="new 0 0 1920 1080" xml:space="preserve">
<path fill="#FFFFFF" d="M701.4,156.9c-0.5-0.5-1-0.9-1.5-1.4c0.7-0.9,1.4-1.7,2.1-2.5c1.1-1.2,2.2-2.4,3.5-3.5
	c0.9-0.8,1.1-0.7,2.1,0.5c3.9,4.7,8.4,8.8,13.1,12.6c1.8,1.5,3.6,2.9,5.4,4.3c0.7,0.5,0.8,0.9,0.5,1.5c-1.4,2.7-3.4,4.9-5.9,6.5
	c-1,0.7-2.1,1.2-3.2,1.8c-0.7,0.4-1.1,0.2-1.7-0.8c-1.9-3.3-3.8-6.5-5.8-9.8c-0.4-0.6-0.8-1.2-1.3-1.9c-1.5,1.3-2.9,2.5-4.3,3.8
	c-2.9,2.7-5.7,5.4-8.6,8.1c-2.8,2.5-5.6,4.9-8.5,7.3c-1.7,1.4-3.5,2.8-5.3,4.1c-2.2,1.5-3.5,3.8-4.3,6.4c-0.2,0.6-0.4,1.1-0.6,1.7
	c-0.2,1-0.8,1.3-1.8,1.1c-1.7-0.3-3.4-0.3-4.9-1.8c-0.7-0.7-1.3-1.4-1.9-2.2c-0.8-1.2-0.7-2.2,0.2-3c1.6-1.4,3.3-2.8,4.9-4.2
	c2.8-2.5,5.6-5,8.4-7.6c3.2-3,6.4-6,9.4-9.2c1.6-1.7,2.8-3.8,4.2-5.7c1.6-2.2,3.3-4.4,5.6-5.8C701.3,157.1,701.4,157,701.4,156.9z"
	/>
</svg>
