<?xml version="1.0" encoding="utf-8"?>
<!-- Generator: Adobe Illustrator 15.0.2, SVG Export Plug-In . SVG Version: 6.00 Build 0)  -->
<!DOCTYPE svg PUBLIC "-//W3C//DTD SVG 1.1//EN" "http://www.w3.org/Graphics/SVG/1.1/DTD/svg11.dtd">
<svg version="1.1" id="Layer_1" xmlns="http://www.w3.org/2000/svg" xmlns:xlink="http://www.w3.org/1999/xlink" x="0px" y="0px"
	 width="792px" height="1224px" viewBox="0 0 792 1224" enable-background="new 0 0 792 1224" xml:space="preserve">
<g id="Layer_2_1_">
	<path fill="#FFFFFF" d="M286.5,457.547c0.092-0.31,0.615-5.122,6.326-6.318c0,0,1.035,3.549,1.16,3.818
		c0.122,0.267,0.641,0.836,0.641,0.836s0.153-0.069,0.329,0.059c0.174,0.126,1.609,1.781,1.713,1.96
		c0.104,0.182,0.074,0.235,0.001,0.429c-0.073,0.197,3.998,2.656,3.998,2.656s-1.007,4.811-7.242,4.934c0,0,0.118-1.212,0.131-1.356
		c0.013-0.145-0.313-0.782-0.35-1.026c-0.036-0.249,0.183-0.495,0.136-0.597c-0.047-0.103-0.666-1.348-0.666-1.348
		s-8.698,6.805-10.557,9.35c-0.438,0.591-0.488,0.767-0.73,0.811c-0.516,0.057-0.75-0.139-0.844-0.236
		c-0.541-0.59-1.327-1.836-1.229-2.075c0.099-0.237,0.446-0.892,2.216-2.544c1.771-1.648,8.509-7.009,9.045-7.656
		c0,0-0.91-0.866-1.064-0.957c-0.159-0.089-0.299-0.054-0.507-0.062c-0.211-0.001-0.629-0.42-0.974-0.492
		C287.692,457.657,286.5,457.547,286.5,457.547z"/>
</g>
<g id="Layer_1_1_">
</g>
</svg>
