<?xml version="1.0" encoding="utf-8"?>
<!-- Generator: Adobe Illustrator 15.0.2, SVG Export Plug-In . SVG Version: 6.00 Build 0)  -->
<!DOCTYPE svg PUBLIC "-//W3C//DTD SVG 1.1//EN" "http://www.w3.org/Graphics/SVG/1.1/DTD/svg11.dtd">
<svg version="1.1" id="Layer_1" xmlns="http://www.w3.org/2000/svg" xmlns:xlink="http://www.w3.org/1999/xlink" x="0px" y="0px"
	 width="792px" height="1224px" viewBox="0 0 792 1224" enable-background="new 0 0 792 1224" xml:space="preserve">
<path id="Machete_2_" fill="#FFFFFF" d="M276.9,466.628c0.66-0.428,2.803-2.405,2.852-2.761c0.083-0.608-0.144-0.731-0.122-1.013
	l1.746-1.662c0.228,0.061,1.059,0.287,1.238,0.226c0.177-0.062,6.361-5.08,14.073-7.778c0,0-0.492,5.128-4.987,7.128
	c-5.42,1.807-6.118,1.809-7.03,2.38c-0.621,0.389-0.143,1.687-0.271,1.825c-0.129,0.138-1.589,1.243-1.589,1.243
	s-0.185-0.214-0.508-0.506c-0.227-0.141-0.555,0.236-0.878,0.56c-0.322,0.324-1.483,0.851-1.627,1.209
	c-0.145,0.358-0.002,0.659-0.126,0.935c-0.124,0.276-0.356,0.551-0.777,0.516c-0.418-0.034-0.835-0.042-1.821-0.59
	C276.088,467.793,276.092,467.151,276.9,466.628z"/>
</svg>
