<?xml version="1.0" encoding="utf-8"?>
<!-- Generator: Adobe Illustrator 15.0.2, SVG Export Plug-In . SVG Version: 6.00 Build 0)  -->
<!DOCTYPE svg PUBLIC "-//W3C//DTD SVG 1.1//EN" "http://www.w3.org/Graphics/SVG/1.1/DTD/svg11.dtd">
<svg version="1.1" id="Layer_1" xmlns="http://www.w3.org/2000/svg" xmlns:xlink="http://www.w3.org/1999/xlink" x="0px" y="0px"
	 width="792px" height="1224px" viewBox="0 0 792 1224" enable-background="new 0 0 792 1224" xml:space="preserve">
<path id="Short_Sword" fill="#FFFFFF" d="M285.282,468.871c-0.193-0.45-0.386-0.489-0.768-1.257
	c-0.533-1.081-1.171-2.013-1.171-2.013c1.05-0.589,1.716-0.489,1.716-0.489c0.205-1.135,0.85-2.053,0.85-2.053l0.525,0.268
	c0.641-1.629,6.876-6.278,6.876-6.278c3.302-3.005,2.674-6.487,2.674-6.487c-0.007,0-0.013,0.001-0.019-0.001
	c0-0.006-0.003-0.013-0.002-0.021c0,0-3.493-0.559-6.433,2.804c0,0-4.522,6.328-6.137,6.998l0.278,0.523c0,0-0.903,0.66-2.037,0.891
	c0,0,0.112,0.663-0.455,1.723c0,0-0.916-0.687-2.038-1.128c-0.512-0.204-0.64-0.358-1.191-0.609
	c-0.543-0.251-1.229,0.376-0.769,0.909c0.23,0.268,1.747,0.667,3.25,2.314c-0.68,0.608-2.017,2.186-2.74,3.028
	c-0.548-0.193-1.165-0.107-1.616,0.29c-0.681,0.596-0.725,1.653-0.104,2.36c0.624,0.71,1.677,0.801,2.355,0.204
	c0.457-0.401,0.621-1.015,0.49-1.588c0.802-0.722,2.436-2.169,3.05-2.886c1.686,1.544,2.123,2.964,2.381,3.204
	C284.683,469.982,285.674,469.792,285.282,468.871z"/>
</svg>
