<?xml version="1.0" encoding="utf-8"?>
<!-- Generator: Adobe Illustrator 15.0.2, SVG Export Plug-In . SVG Version: 6.00 Build 0)  -->
<!DOCTYPE svg PUBLIC "-//W3C//DTD SVG 1.1//EN" "http://www.w3.org/Graphics/SVG/1.1/DTD/svg11.dtd">
<svg version="1.1" id="Layer_1" xmlns="http://www.w3.org/2000/svg" xmlns:xlink="http://www.w3.org/1999/xlink" x="0px" y="0px"
	 width="792px" height="1224px" viewBox="0 0 792 1224" enable-background="new 0 0 792 1224" xml:space="preserve">
<path id="Battle_Mace_2_" fill="#FFFFFF" d="M296.601,456.357c-1.082-1.471,0.386-3.964,0.386-3.964
	c-0.184-1.282-1.503-1.646-1.503-1.646c-2.706,1.2-3.914-0.045-3.914-0.045c-0.191,1.828-0.669,2.847-0.832,3.242
	c-0.163,0.395-1.052,1.277-1.331,1.477c-0.276,0.199-0.603,0.073-0.603,0.073l-0.017,0.667l-0.33,0.349
	c0.177,0.348,0.048,0.424,0.048,0.424s-6.264,5.699-6.433,5.691c-0.186-0.008-0.377-0.143-0.377-0.143
	c-0.096-0.011-0.468,0.253-0.397,0.391c0.071,0.139-0.005,0.315-0.005,0.315s-4.542,4.105-4.738,4.234
	c-0.196,0.13-0.14,0.017-0.331,0.008c-0.191-0.008-0.647,0.306-0.675,0.531c-0.034,0.104-0.02,0.383,0.066,0.519
	c0.084,0.137,0.677,1.142,1.574,1.777c0.108,0.078,0.367,0.165,0.488,0.154c0.121-0.011,0.599-0.538,0.576-0.701
	c-0.025-0.161,0.101-0.313,0.101-0.313s4.632-4.075,4.7-4.167c0.069-0.093,0.361,0.019,0.361,0.019s0.417-0.25,0.349-0.434
	c-0.035-0.102-0.077-0.105-0.064-0.33c0.012-0.225,6.271-5.721,6.432-5.803c0.163-0.082,0.383,0.125,0.383,0.125l0.353-0.31
	l0.68,0.055C291.549,458.554,292.656,455.871,296.601,456.357z M291.116,457.902c-1.09-0.198-1.266-0.355-1.266-0.355l6.427-5.677
	c-1.374,2.562-0.735,3.737-0.735,3.737C292.233,455.582,291.116,457.902,291.116,457.902z"/>
</svg>
