<?xml version="1.0" encoding="utf-8"?>
<!-- Generator: Adobe Illustrator 15.0.2, SVG Export Plug-In . SVG Version: 6.00 Build 0)  -->
<!DOCTYPE svg PUBLIC "-//W3C//DTD SVG 1.1//EN" "http://www.w3.org/Graphics/SVG/1.1/DTD/svg11.dtd">
<svg version="1.1" id="Layer_1" xmlns="http://www.w3.org/2000/svg" xmlns:xlink="http://www.w3.org/1999/xlink" x="0px" y="0px"
	 width="792px" height="1224px" viewBox="0 0 792 1224" enable-background="new 0 0 792 1224" xml:space="preserve">
<path id="War_Hammer" fill="#FFFFFF" d="M297.511,455.477c-1.448-0.575-2.522-1.247-3.318-1.91c0.328-0.604,1.385-2.183,1.385-2.183
	l-2.296,1.308c-1.078-1.207-1.287-2.195-1.287-2.195l-1.656,0.796l-0.29-0.137l-0.177,0.085c-1.403-1.863-2.868-1.445-2.868-1.445
	c2.056,2,1.649,2.318,1.649,2.318c-0.074,0.091-0.101,0.194-0.101,0.194l0.216,0.338l-1.247,1.197c0,0,0.892,0.853,1.834,2.078
	l-0.148,0.186l-0.268,0.25c-0.187-0.022-0.329,0.069-0.329,0.069c-0.074,0.071-0.058,0.351-0.058,0.351l-0.32,0.244
	c-0.619-0.035-0.766,0.055-0.766,0.055c-0.244,0.327-0.04,0.703-0.04,0.703l-9.5,8.762c-0.591-0.12-0.68,0.077-0.68,0.077
	c-0.155,0.234,0.029,0.649,0.029,0.649l-0.378,0.32c-0.879-0.14-0.98,0.108-0.98,0.108c-0.102,0.174-0.964,1.175,0.491,2.613
	c0.763,0.753,1.976,0.667,2.441,0.317c0.284-0.375,0.104-0.98,0.104-0.98l0.265-0.242c0.401,0.217,0.766-0.053,0.766-0.053
	c0.191-0.396,0.044-0.72,0.044-0.72l4.838-5.001l0,0c0,0,0.006-0.006,0.006-0.006l4.082-4.22c0.729,0.157,0.767-0.126,0.767-0.126
	c0.063-0.189,0.023-0.494-0.008-0.659c0.089-0.092,0.169-0.175,0.254-0.264c0.08-0.003,0.226-0.017,0.292-0.069
	c0.065-0.055,0.251-0.324,0.352-0.475c0.49,0.885,0.856,1.825,0.917,2.714l2.133,0.202l-0.018-0.279l0.81,0.123l0.048-0.317
	l0.788,0.208l0.169-1.677l0.985,0.5l0.131-1.598l0.941,0.525L297.511,455.477z"/>
</svg>
