<?xml version="1.0" encoding="utf-8"?>
<!-- Generator: Adobe Illustrator 15.0.2, SVG Export Plug-In . SVG Version: 6.00 Build 0)  -->
<!DOCTYPE svg PUBLIC "-//W3C//DTD SVG 1.1//EN" "http://www.w3.org/Graphics/SVG/1.1/DTD/svg11.dtd">
<svg version="1.1" id="Layer_1" xmlns="http://www.w3.org/2000/svg" xmlns:xlink="http://www.w3.org/1999/xlink" x="0px" y="0px"
	 width="792px" height="1224px" viewBox="0 0 792 1224" enable-background="new 0 0 792 1224" xml:space="preserve">
<path id="Crescent_Wrench" fill="#FFFFFF" d="M297.681,454.854l-3.702,1.391l-0.846-2.289l0.384-1.147l2.89-1.072
	c0,0-2.139-1.531-4.555-0.499c-0.914,0.39-1.591,1.328-2.254,3.569c-0.232,0.783-0.989,2.178-1.877,3.276
	c-0.534,0.663-2.261,2.234-2.517,2.472c-0.256,0.234-8.872,8.128-8.696,7.969c0.174-0.162-0.441,0.402-0.519,0.701
	c-0.172,0.686,0.316,1.408,1.094,1.614c0.486,0.129,0.967,0.026,1.305-0.237c0,0-0.355,0.234,0.001-0.003
	c0.357-0.233,10.457-9.489,10.795-9.771c0.338-0.285,1.584-1.198,3.948-1.742l0.603,1.522l0.755-0.245l0.22-0.863l0.331-0.169
	l-0.178-0.76c0,0,0.962-0.75,1.875-1.569C297.719,456.12,297.681,454.854,297.681,454.854z M292.38,457.821l-1.613,0.604
	l-0.748-2.033l1.613-0.603L292.38,457.821z"/>
</svg>
