<?xml version="1.0" encoding="utf-8"?>
<!-- Generator: Adobe Illustrator 15.0.2, SVG Export Plug-In . SVG Version: 6.00 Build 0)  -->
<!DOCTYPE svg PUBLIC "-//W3C//DTD SVG 1.1//EN" "http://www.w3.org/Graphics/SVG/1.1/DTD/svg11.dtd">
<svg version="1.1" id="Layer_1" xmlns="http://www.w3.org/2000/svg" xmlns:xlink="http://www.w3.org/1999/xlink" x="0px" y="0px"
	 width="792px" height="1224px" viewBox="0 0 792 1224" enable-background="new 0 0 792 1224" xml:space="preserve">
<path id="Pipe_2_" fill="#FFFFFF" d="M294.768,450.574c-0.589-0.504-1.155-0.499-1.268-0.487c-0.114,0.012-0.541,0.646-0.68,0.686
	c-0.796,0.226-1.374,0.599-2.223,2.632l-0.679,0.673c-0.128-0.006-0.215-0.112-0.392-0.005l-0.41,0.411
	c-0.11,0.173,0.114,0.262,0.009,0.367c-0.104,0.106-2.309,2.358-2.437,2.426c-0.128,0.069-0.329-0.156-0.329-0.156
	s-0.251,0.276-0.355,0.437c-0.107,0.162-0.017,0.459-0.017,0.459s-9.493,9.478-9.583,9.521c-0.09,0.046-0.192-0.058-0.268-0.029
	c-0.074,0.029-0.865,0.85-0.97,0.844c-0.103-0.006-0.17-0.067-0.238-0.016c-0.067,0.053-0.532,0.62-0.532,0.62
	s0.009-0.046,0.127,0.128c0.118,0.176-0.292,0.633-0.295,0.813c-0.003,0.182,1.475,2.189,2.045,1.946
	c0.401-0.173,0.446-0.509,0.793-0.216c0,0,0.314-0.178,0.59-0.543l-0.047-0.226l0.799-0.915l-0.042-0.418l9.297-9.283l0.471,0.265
	c0,0,0.313-0.345,0.465-0.402c0.154-0.055,0.531,0.083,0.531,0.083l0.375-0.437l-0.14-0.282l0.211-0.206
	c0,0,0.333,0.277,0.154,0.603l0.399,0.404l2.274-2.257l-0.474-0.477c0,0-0.218,0.098-0.311,0.076
	c-0.094-0.02-0.208-0.174-0.208-0.174l0.184-0.182c0,0,0.219,0.21,0.424,0.04c0.125-0.106,0.24-0.196,0.381-0.334
	c0.091-0.093-0.043-0.462-0.043-0.462l0.947-0.939c0,0,2.278,3.688,2.396,3.81c0.386,0.357,0.843-0.097,0.978-0.23
	c0.216-0.215-0.094-0.683-0.267-0.922c-0.173-0.237-0.644-0.876-1.028-1.404c-0.267-0.38-1.035-1.889-1.035-1.889
	s-0.035,0.012,0.201-0.103c0.236-0.11,1.037-0.979,1.032-1.201c-0.004-0.219-0.017-0.51,0.013-0.635
	c0.032-0.122,0.369-0.303,0.474-0.394c0.103-0.089,0.142-0.437,0.067-0.537C296.054,451.958,295.494,451.17,294.768,450.574z"/>
</svg>
