<?xml version="1.0" encoding="utf-8"?>
<!-- Generator: Adobe Illustrator 15.0.2, SVG Export Plug-In . SVG Version: 6.00 Build 0)  -->
<!DOCTYPE svg PUBLIC "-//W3C//DTD SVG 1.1//EN" "http://www.w3.org/Graphics/SVG/1.1/DTD/svg11.dtd">
<svg version="1.1" id="Layer_1" xmlns="http://www.w3.org/2000/svg" xmlns:xlink="http://www.w3.org/1999/xlink" x="0px" y="0px"
	 width="792px" height="1224px" viewBox="0 0 792 1224" enable-background="new 0 0 792 1224" xml:space="preserve">
<path id="Pipe_Wrench_3_" fill="#FFFFFF" d="M276.64,468.405c0.118-0.105,7.94-7.424,8.563-8.126
	c0.624-0.701,0.521-0.716,0.521-0.716s-1.558,1.237-1.688,1.337c-0.128,0.1-0.327,0.1-0.327,0.1s-0.448,0.021-0.854-0.565
	c-0.278-0.402-0.125-0.715-0.125-0.715s0.171-0.299,1.274-1.291c1.103-0.991,1.368-1.231,1.368-1.231l-0.214-0.396
	c0,0,0.122-0.229,0.427-0.45c0.304-0.223,0.535-0.387,0.535-0.387s-0.344-0.846,0.58-1.652c1.123-0.979,2.154-0.302,2.154-0.302
	s0.765-0.811,1.179-1.197c0.413-0.386,0.925-0.791,1.79-0.749c1.556,0.124,2.391,1.247,2.644,1.74
	c0.252,0.494,0.443,1.41,0.404,1.667c-0.284,0.4-0.446,0.464-0.704,0.414c0,0-1.377-1.603-1.689-1.956
	c-0.154-0.174-0.523-0.068-0.523-0.068l-1.183,1.031l1.812,2.103c0,0-14.632,12.812-14.755,12.886
	c-0.253,0.156-0.757,0.181-1.274-0.88C276.407,468.702,276.522,468.51,276.64,468.405z"/>
</svg>
