<?xml version="1.0" encoding="utf-8"?>
<!-- Generator: Adobe Illustrator 15.0.2, SVG Export Plug-In . SVG Version: 6.00 Build 0)  -->
<!DOCTYPE svg PUBLIC "-//W3C//DTD SVG 1.1//EN" "http://www.w3.org/Graphics/SVG/1.1/DTD/svg11.dtd">
<svg version="1.1" id="Layer_1" xmlns="http://www.w3.org/2000/svg" xmlns:xlink="http://www.w3.org/1999/xlink" x="0px" y="0px"
	 width="792px" height="1224px" viewBox="0 0 792 1224" enable-background="new 0 0 792 1224" xml:space="preserve">
<path id="Mjlnir_1_" fill="#FFFFFF" d="M287.806,449.363l-3.964,3.854l0.524,2.047l-0.145,0.478l2.674,2.994
	c0,0-8.828,8.459-8.987,8.497c-0.158,0.037-0.218-0.129-0.333-0.149c-0.117-0.019-1.044,0.438-1.094,0.893
	c-0.186,1.664,1.809,3.202,2.448,2.864c0.699-0.37,1.076-0.782,1.015-1.069c-0.035-0.173-0.099-0.187-0.1-0.337
	c-0.003-0.151,8.955-8.561,8.955-8.561l2.18,2.439l0.441-0.181l2.08,0.757l1.181-0.163l3.792-3.61l-0.624-2.059l0.037-0.75
	l-6.29-6.794l-1.564-0.623l-0.269,0.204L287.806,449.363z"/>
</svg>
