<?xml version="1.0" encoding="utf-8"?>
<!-- Generator: Adobe Illustrator 15.0.2, SVG Export Plug-In . SVG Version: 6.00 Build 0)  -->
<!DOCTYPE svg PUBLIC "-//W3C//DTD SVG 1.1//EN" "http://www.w3.org/Graphics/SVG/1.1/DTD/svg11.dtd">
<svg version="1.1" id="Layer_1" xmlns="http://www.w3.org/2000/svg" xmlns:xlink="http://www.w3.org/1999/xlink" x="0px" y="0px"
	 width="792px" height="1224px" viewBox="0 0 792 1224" enable-background="new 0 0 792 1224" xml:space="preserve">
<path id="Morning_Star_1_" fill="#FFFFFF" d="M295.588,458.929l-0.584-0.826c0.118-0.217,0.22-0.447,0.3-0.687
	c0.083-0.25,0.139-0.502,0.17-0.755c0.898-0.102,2.427-0.493,2.427-0.493l-2.449-0.704c-0.088-0.507-0.268-0.988-0.531-1.425
	l0.533-0.546l-0.763,0.205c-0.072-0.097-0.151-0.191-0.232-0.28c0.342-0.675,0.96-2.259,0.96-2.259l-1.95,1.459
	c-0.234-0.133-0.484-0.247-0.749-0.332c-0.191-0.063-0.38-0.109-0.57-0.146c-0.212-0.713-0.313-2.36-0.313-2.36l-0.868,2.329
	c-0.57,0.068-1.117,0.255-1.605,0.545c-0.828-0.659-2.021-1.452-2.021-1.452l1.086,2.219c-0.04,0.044-0.079,0.088-0.117,0.134
	l-0.692-0.263l0.44,0.603c-0.197,0.297-0.357,0.623-0.474,0.975c-0.048,0.15-0.087,0.301-0.12,0.451l-2.533,0.498l2.471,0.729
	c0.035,0.358,0.118,0.708,0.243,1.039l-0.021,0.022l-0.154-0.012l-0.385,0.577l0.072,0.122c0,0,0.022,0.027,0.043,0.053
	c-1.495,1.418-5.878,5.312-6.08,5.38c-0.201,0.068-0.57-0.08-0.57-0.08l-0.311,0.264c0,0,0.211,0.425,0.127,0.505
	c-0.084,0.08-3.896,3.168-3.948,3.163c-0.052-0.005-0.201-0.02-0.201-0.02l-0.269,0.244c0,0,0.128,0.105,0.068,0.175
	c-0.059,0.068-0.12,0.144-0.251,0.285c-0.444,0.478-0.114,1.294,0.472,1.835c0.673,0.626,1.684,0.137,1.784,0.062
	s0.173,0.037,0.173,0.037l0.269-0.245c0,0-0.104-0.08,0.007-0.23c0.096-0.129,2.957-3.368,3.447-3.634
	c0.272-0.148,0.479,0.118,0.479,0.118l0.309-0.263c0,0-0.153-0.431-0.006-0.569c0.146-0.138,3.878-3.699,5.91-5.425
	c0,0,0.003,0.003,0.004,0.003l0.104,0.087l0.699-0.352c0,0,0.084,0.041,0.232,0.1c0.166,0.081,0.34,0.153,0.522,0.214
	c0.202,0.064,0.407,0.116,0.61,0.149c0.085,0.732,0.283,2.254,0.283,2.254s0.53-1.357,0.755-2.219
	c0.629-0.058,1.233-0.265,1.763-0.591c0.408,0.319,1.83,1.476,1.83,1.476l-0.963-2.195c0.04-0.043,0.08-0.088,0.119-0.136
	L295.588,458.929z"/>
</svg>
