<?xml version="1.0" encoding="utf-8"?>
<!-- Generator: Adobe Illustrator 15.0.2, SVG Export Plug-In . SVG Version: 6.00 Build 0)  -->
<!DOCTYPE svg PUBLIC "-//W3C//DTD SVG 1.1//EN" "http://www.w3.org/Graphics/SVG/1.1/DTD/svg11.dtd">
<svg version="1.1" id="Layer_1" xmlns="http://www.w3.org/2000/svg" xmlns:xlink="http://www.w3.org/1999/xlink" x="0px" y="0px"
	 width="792px" height="1224px" viewBox="0 0 792 1224" enable-background="new 0 0 792 1224" xml:space="preserve">
<path id="Holy_Water_Sprinkler" fill="#FFFFFF" d="M296.356,452.636l1.729-2.236l-2.707,1.004c-0.216-0.109-0.509-0.148-0.509-0.148
	c-1.072-0.486-2.014,0.388-2.709,1.191c-0.13-0.062-0.215-0.101-0.215-0.101l-1.149-0.442l0.762,1.257
	c-0.046,0.054-0.09,0.102-0.133,0.147c-0.222,0.231-0.717,0.695-1.288,1.218l-0.267-0.23l-1.157-0.819l0.666,1.311l0.216,0.232
	c-0.594,0.538-1.204,1.081-1.639,1.463l-0.373-0.305l0.031,0.552l-1.177-0.805l0.74,1.226l0,0c-0.281,0.254-0.811,0.758-1.478,1.438
	c-0.106-0.054-0.169-0.078-0.169-0.078l-1.295-0.904l0.751,1.505l0.102,0.109c-0.667,0.699-2.18,2.416-2.18,2.416l-0.216-0.04
	l-0.326,0.375l0.083,0.213c0,0-0.116,0.14-0.173,0.211c-2.317,2.839-5.792,5.676-6.324,6.174c-0.534,0.498-0.43,0.698-0.373,0.827
	c0,0,0.857,1.235,1.236,1.313c0.379,0.079,0.558-0.269,1.018-0.624c0.387-0.298,6.626-5.702,6.626-5.702l0.156,0.097l0.426-0.275
	l-0.07-0.247c0,0,0.314-0.25,0.393-0.304c0.425-0.289,1.318-0.956,2.259-1.671l0.147,0.159l1.235,0.624l-0.533-1.131
	c-0.032-0.075-0.066-0.148-0.101-0.221c0.581-0.444,1.138-0.872,1.571-1.206c0,0,1.135,0.816,1.192,0.834
	c0.058,0.019-0.459-1.4-0.459-1.4c0.078-0.06,0.12-0.093,0.12-0.093c0.443-0.34,0.992-0.922,1.563-1.529l0.118,0.127l0.941,0.363
	l-0.418-1.164c0.428-0.442,0.851-0.855,1.233-1.146c0.063-0.048,0.125-0.095,0.186-0.142l1.045,0.931l-0.344-1.133l0.109-0.306
	c0,0,0,0-0.053-0.095c0.789-0.652,1.145-1.057,1.228-1.353C296.479,453.836,296.687,453.222,296.356,452.636z"/>
</svg>
